<svg width="72" height="72" viewBox="0 0 72 72" fill="none" xmlns="http://www.w3.org/2000/svg">
<rect width="72" height="72" rx="5" fill="black"/>
<path d="M33.9703 33.3954C34.6597 32.3614 35.0043 31.155 35.0043 29.7764C35.0043 26.1573 31.9023 23.4 28.4556 23.4H18.4602C17.9432 23.4 17.5986 23.7447 17.5986 24.2617V46.1481C17.5986 46.6651 17.9432 47.0098 18.4602 47.0098H29.4896C33.6257 47.0098 37.0723 43.7354 37.0723 39.5994C37.0723 37.0144 35.866 34.7741 33.9703 33.3954ZM21.9069 27.8807H28.4556C29.662 27.8807 30.5236 28.9147 30.5236 29.9487C30.5236 31.155 29.4896 32.0167 28.4556 32.0167H21.9069V27.8807ZM29.662 42.7014H21.9069V36.4974H29.662C31.3853 36.4974 32.764 37.8761 32.764 39.5994C32.764 41.3228 31.3853 42.7014 29.662 42.7014Z" fill="white"/>
<path d="M56.2015 38.0484C56.2015 32.8784 52.2378 28.7424 47.2401 28.7424C42.2424 28.7424 38.2787 32.8784 38.2787 38.0484C38.2787 43.2185 42.2424 47.3545 47.2401 47.3545C50.1698 47.3545 52.9271 45.8035 54.6504 43.2185C54.8228 42.8738 54.9951 42.5291 55.1674 42.1844C55.3398 42.0121 55.1674 41.6675 54.8228 41.6675H50.5144C50.3421 41.6675 50.3421 41.6674 50.1698 41.8398C49.3081 42.7014 48.2741 43.0461 47.2401 43.0461C44.9997 43.0461 43.2764 41.4951 42.7594 39.2548H55.3398C55.8568 39.2548 56.2015 38.9101 56.2015 38.3931V38.0484ZM47.2401 33.2231C48.7911 33.2231 50.1698 34.0847 51.0314 35.4634H43.4487C44.138 34.0847 45.6891 33.2231 47.2401 33.2231Z" fill="white"/>
<path d="M50.8591 27.7084H42.9317C42.587 27.7084 42.2424 27.3637 42.2424 27.019V25.1234C42.2424 24.7787 42.587 24.434 42.9317 24.434H50.8591C51.2038 24.434 51.5484 24.7787 51.5484 25.1234V27.1914C51.5484 27.3637 51.3761 27.7084 50.8591 27.7084Z" fill="white"/>
</svg>
