<svg width="60" height="48" viewBox="0 0 60 48" fill="none" xmlns="http://www.w3.org/2000/svg">
<path d="M6 48.0098C4.35 48.0098 2.925 47.4348 1.725 46.2848C0.575 45.0848 0 43.6598 0 42.0098V6.00976C0 4.35977 0.575 2.95977 1.725 1.80976C2.925 0.609765 4.35 0.00976562 6 0.00976562H54C55.65 0.00976562 57.05 0.609765 58.2 1.80976C59.4 2.95977 60 4.35977 60 6.00976V42.0098C60 43.6598 59.4 45.0848 58.2 46.2848C57.05 47.4348 55.65 48.0098 54 48.0098H6ZM30 27.0098L54 12.0098V6.00976L30 21.0098L6 6.00976V12.0098L30 27.0098Z" fill="#0B0016"/>
</svg>
