<svg width="72" height="72" viewBox="0 0 72 72" fill="none" xmlns="http://www.w3.org/2000/svg">
<path d="M72 5C72 2.23857 69.7614 0 67 0H5C2.23857 0 0 2.23858 0 5V67C0 69.7614 2.23858 72 5 72H67C69.7614 72 72 69.7614 72 67V5Z" fill="black"/>
<path fill-rule="evenodd" clip-rule="evenodd" d="M35.945 18.432C26.0367 18.432 18 26.4687 18 36.377C18 44.3036 23.1743 51.0192 30.2202 53.4412C31.1009 53.5513 31.4312 53.0008 31.4312 52.5604C31.4312 52.1201 31.4312 51.0192 31.4312 49.4779C26.4771 50.5788 25.3761 47.0559 25.3761 47.0559C24.6055 44.9641 23.3945 44.4137 23.3945 44.4137C21.7431 43.3127 23.5046 43.3127 23.5046 43.3127C25.2661 43.4228 26.2569 45.1843 26.2569 45.1843C27.9083 47.9366 30.4404 47.1659 31.4312 46.7256C31.5413 45.5146 32.0917 44.7439 32.5321 44.3036C28.5688 43.8632 24.3853 42.3219 24.3853 35.3861C24.3853 33.4045 25.0459 31.8632 26.2569 30.5421C26.1468 30.2118 25.4862 28.3403 26.4771 25.9182C26.4771 25.9182 28.0183 25.4779 31.4312 27.7898C32.8624 27.3494 34.4037 27.2393 35.945 27.2393C37.4862 27.2393 39.0275 27.4595 40.4587 27.7898C43.8716 25.4779 45.4128 25.9182 45.4128 25.9182C46.4037 28.3403 45.7431 30.2118 45.633 30.6522C46.7339 31.8632 47.5046 33.5146 47.5046 35.4962C47.5046 42.432 43.3211 43.8632 39.3578 44.3036C40.0183 44.854 40.5688 45.9549 40.5688 47.6063C40.5688 50.0283 40.5688 51.8999 40.5688 52.5604C40.5688 53.0008 40.8991 53.5513 41.7798 53.4412C48.9358 51.0192 54 44.3036 54 36.377C53.8899 26.4687 45.8532 18.432 35.945 18.432Z" fill="white"/>
</svg>
