<svg width="73" height="72" viewBox="0 0 73 72" fill="none" xmlns="http://www.w3.org/2000/svg">
<g clip-path="url(#clip0_85_235)">
<path d="M67.1703 0H5.81562C2.87656 0 0.5 2.32031 0.5 5.18906V66.7969C0.5 69.6656 2.87656 72 5.81562 72H67.1703C70.1094 72 72.5 69.6656 72.5 66.8109V5.18906C72.5 2.32031 70.1094 0 67.1703 0ZM21.8609 61.3547H11.1734V26.9859H21.8609V61.3547ZM16.5172 22.3031C13.0859 22.3031 10.3156 19.5328 10.3156 16.1156C10.3156 12.6984 13.0859 9.92812 16.5172 9.92812C19.9344 9.92812 22.7047 12.6984 22.7047 16.1156C22.7047 19.5187 19.9344 22.3031 16.5172 22.3031ZM61.8547 61.3547H51.1812V44.6484C51.1812 40.6688 51.1109 35.5359 45.6266 35.5359C40.0719 35.5359 39.2281 39.8812 39.2281 44.3672V61.3547H28.5688V26.9859H38.8062V31.6828H38.9469C40.3672 28.9828 43.8547 26.1281 49.0438 26.1281C59.8578 26.1281 61.8547 33.2438 61.8547 42.4969V61.3547Z" fill="#0B0016"/>
</g>
<defs>
<clipPath id="clip0_85_235">
<rect width="72" height="72" fill="white" transform="translate(0.5)"/>
</clipPath>
</defs>
</svg>
